<svg width="27" height="43" viewBox="0 0 27 43" fill="none" xmlns="http://www.w3.org/2000/svg">
<path d="M6.20853 0.0595703H0V42.7116H6.20853V0.0595703Z" fill="black"/>
<path d="M7.40271 0.00333059V31.3028C7.46627 31.3028 7.53317 31.3028 7.60007 31.3028C16.0933 31.3028 23.0344 24.7871 23.5228 16.5725H25.2021V19.1708C25.2021 19.1708 25.2021 19.8204 25.2021 19.8237C25.2021 20.3 25.5901 20.6865 26.0685 20.6865C26.5468 20.6865 26.9348 20.3 26.9348 19.8237V19.1774V11.4225C26.9348 10.9462 26.5468 10.5598 26.0685 10.5598C25.5901 10.5598 25.2021 10.9462 25.2021 11.4225C25.2021 11.4225 25.2021 11.4259 25.2021 11.4292V14.6937H23.5195C23.0144 6.49575 16.0799 0 7.60007 0H7.40271V0.00333059Z" fill="#B49B24"/>
</svg>
