<svg width="962" height="254" viewBox="0 0 962 254" fill="none" xmlns="http://www.w3.org/2000/svg">
<g clip-path="url(#clip0_1_8)">
<path d="M28.9316 77.9934V253.245H0.758911V59.802H28.9316V78.7187" fill="white"/>
<path d="M28.9316 77.9934V253.245H0.758911V59.802H28.9316V78.7187" stroke="black" stroke-miterlimit="10"/>
<path d="M139.452 66.0572H163.192L164.27 90.5189H166.152C169.021 80.4109 173.742 73.4607 180.314 69.6532C186.872 65.8456 195.554 63.9419 206.347 63.9419V89.7332C195.736 89.7332 187.464 91.501 181.529 95.0516C175.593 98.6023 171.45 104.042 169.112 111.4C166.774 118.758 165.606 128.805 165.606 141.573V201.647H139.437V66.0572H139.452Z" fill="black"/>
<path d="M245.084 195.86C237.616 192.022 232.804 185.616 230.649 176.626C228.493 167.636 227.415 153.025 227.415 132.779C227.415 112.533 228.493 97.8771 230.649 88.7965C232.804 79.731 237.616 73.3096 245.084 69.5625C252.552 65.8154 264.908 63.9419 282.182 63.9419C299.456 63.9419 311.812 65.8154 319.28 69.5625C326.748 73.3247 331.56 79.731 333.716 88.7965C335.871 97.8771 336.949 112.533 336.949 132.779C336.949 153.025 335.871 167.636 333.716 176.626C331.56 185.616 326.748 192.022 319.28 195.86C311.812 199.698 299.456 201.617 282.182 201.617C264.908 201.617 252.552 199.698 245.084 195.86ZM302.416 177.004C306.196 174.904 308.533 170.9 309.429 164.962C310.324 159.024 310.78 148.296 310.78 132.764C310.78 117.232 310.324 106.278 309.429 100.431C308.533 94.5833 306.196 90.6096 302.416 88.5245C298.636 86.4243 291.897 85.3818 282.182 85.3818C272.467 85.3818 266.001 86.4243 262.221 88.5245C258.442 90.6247 256.104 94.5833 255.209 100.431C254.313 106.278 253.858 117.051 253.858 132.764C253.858 148.478 254.298 159.024 255.209 164.962C256.104 170.9 258.442 174.904 262.221 177.004C266.001 179.104 272.65 180.146 282.182 180.146C291.715 180.146 298.636 179.104 302.416 177.004Z" fill="black"/>
<path d="M369.584 66.0421H393.325L394.402 84.0674H396.285C399.336 76.2861 404.102 70.9828 410.583 68.1574C417.065 65.332 424.7 63.9117 433.519 63.9117C444.843 63.9117 453.617 65.9515 459.825 70.0158C466.033 74.0802 470.481 81.0606 473.183 90.9571C475.885 100.854 477.235 114.996 477.235 133.384C477.235 151.771 475.93 165.959 473.319 175.946C470.708 185.933 466.352 193.004 460.235 197.159C454.117 201.314 445.48 203.384 434.339 203.384C424.989 203.384 417.293 202.009 411.266 199.275C405.24 196.54 400.611 191.901 397.377 185.359H395.753V253.245H369.584V66.0421ZM441.746 174.888C445.435 172.879 447.909 168.633 449.169 162.151C450.429 155.67 451.051 144.851 451.051 129.682C451.051 114.512 450.414 103.694 449.169 97.2123C447.909 90.7305 445.435 86.4848 441.746 84.4753C438.058 82.4658 431.895 81.4686 423.273 81.4686C416.443 81.4686 411.084 82.5715 407.229 84.7624C403.358 86.9532 400.626 90.6096 399.002 95.7165C397.56 99.5542 396.664 104.027 396.3 109.149C395.935 114.271 395.753 121.115 395.753 129.697C395.753 145.033 396.649 155.821 398.455 162.031C400.246 167.697 403.085 171.761 406.956 174.224C410.826 176.686 416.26 177.925 423.273 177.925C431.91 177.925 438.058 176.928 441.746 174.919V174.888Z" fill="black"/>
<path d="M510.159 26.8188V0H537.406V26.8188H510.159ZM510.706 201.254V63.1109H536.875V201.254H510.706Z" fill="black"/>
<path d="M650.158 126.131C650.158 113.727 649.566 104.903 648.397 99.6751C647.228 94.4473 645.027 91.0326 641.794 89.4311C638.561 87.8295 632.975 87.0438 625.066 87.0438C617.158 87.0438 610.676 88.6454 606.715 91.8334C602.753 95.0215 600.233 99.6449 599.155 105.658C598.078 111.687 597.531 120.284 597.531 131.45V201.662H571.362V66.027H595.102L596.18 84.1127H598.062C600.931 77.5553 605.439 72.539 611.557 69.079C617.674 65.6191 625.947 63.8966 636.375 63.8966C647.698 63.8966 656.199 65.7097 661.876 69.351C667.538 72.9923 671.363 78.4467 673.336 85.7142C675.31 92.9817 676.296 103.09 676.296 116.038V201.677H650.127V126.146L650.158 126.131Z" fill="black"/>
<path d="M714.654 27.1059V0.287109H741.901V27.1059H714.654ZM715.201 201.541V63.3981H741.37V201.541H715.201Z" fill="black"/>
<path d="M788.941 201.526V85.5934H765.474V63.3829H788.941V23.2983H815.11V63.3829H842.903V85.5934H815.11V201.526H788.941Z" fill="black"/>
<path d="M866.629 192.687C860.42 186.764 857.324 176.641 857.324 162.333C857.324 152.043 858.493 144.02 860.83 138.264C863.168 132.507 867.13 128.322 872.7 125.708C878.271 123.094 886.104 121.78 896.167 121.78C905.336 121.78 918.557 122.127 935.831 122.822V115.751C935.831 105.991 935.026 99.1009 933.402 95.0819C931.778 91.0779 928.727 88.4489 924.234 87.2251C919.741 86.0013 912.182 85.3969 901.571 85.3969C896.532 85.3969 890.248 85.6537 882.688 86.1826C875.129 86.7114 869.285 87.3158 865.156 88.0108V67.5983C878.651 65.1506 893.572 63.9419 909.935 63.9419C924.856 63.9419 936.013 65.6039 943.39 68.9128C950.767 72.2217 955.7 77.5099 958.235 84.7472C960.755 91.9845 962.015 102.5 962.015 116.28V199.486H938.275L937.197 182.216H935.573C932.157 189.892 926.981 195.044 920.06 197.658C913.138 200.272 905.093 201.586 895.909 201.586C882.597 201.586 872.837 198.625 866.644 192.687H866.629ZM922.336 178.061C926.283 176.671 929.349 174.057 931.505 170.205C934.374 164.629 935.816 156.425 935.816 145.607V139.321H902.634C897.063 139.321 892.919 139.805 890.217 140.757C887.515 141.724 885.633 143.628 884.555 146.513C883.478 149.384 882.931 153.887 882.931 159.991C882.931 165.747 883.508 170.023 884.692 172.818C885.861 175.614 888.107 177.533 891.432 178.575C894.756 179.618 899.932 180.146 906.945 180.146C913.244 180.146 918.359 179.451 922.321 178.046L922.336 178.061Z" fill="black"/>
<path d="M28.9316 59.802H0.758911V253.26H28.9316V59.802Z" fill="black"/>
<path d="M34.3506 59.5451V201.511C34.639 201.511 34.9426 201.511 35.2462 201.511C73.7863 201.511 105.283 171.957 107.499 134.698H115.119V146.483C115.119 146.483 115.119 149.429 115.119 149.445C115.119 151.605 116.88 153.358 119.051 153.358C121.221 153.358 122.982 151.605 122.982 149.445V146.513V111.339C122.982 109.179 121.221 107.426 119.051 107.426C116.88 107.426 115.119 109.179 115.119 111.339C115.119 111.339 115.119 111.354 115.119 111.37V126.177H107.484C105.192 88.9929 73.7256 59.53 35.2462 59.53H34.3506V59.5451Z" fill="#B49B24"/>
</g>
<defs>
<clipPath id="clip0_1_8">
<rect width="962" height="254" fill="white"/>
</clipPath>
</defs>
</svg>
